<?xml version="1.0" encoding="utf-8"?>
<!-- Generator: Adobe Illustrator 16.0.0, SVG Export Plug-In . SVG Version: 6.00 Build 0)  -->
<!DOCTYPE svg PUBLIC "-//W3C//DTD SVG 1.1//EN" "http://www.w3.org/Graphics/SVG/1.1/DTD/svg11.dtd">
<svg version="1.1" xmlns="http://www.w3.org/2000/svg" xmlns:xlink="http://www.w3.org/1999/xlink" x="0px" y="0px" width="600px"
	 height="200px" viewBox="0 0 600 200" enable-background="new 0 0 600 200" xml:space="preserve">
<g id="Gear">
	<g>
		<path fill="#222222" d="M172.54,88.139v24.157c0,0.871-0.291,1.705-0.87,2.503c-0.582,0.799-1.307,1.271-2.177,1.415
			l-20.131,3.047c-1.379,3.917-2.794,7.219-4.244,9.902c2.538,3.628,6.42,8.634,11.644,15.017c0.725,0.87,1.088,1.778,1.088,2.72
			c0,0.944-0.326,1.779-0.979,2.503c-1.958,2.685-5.55,6.603-10.772,11.753c-5.224,5.151-8.634,7.726-10.229,7.726
			c-0.871,0-1.814-0.326-2.83-0.979l-15.017-11.752c-3.192,1.67-6.493,3.047-9.902,4.135c-1.161,9.865-2.214,16.611-3.155,20.24
			c-0.509,2.03-1.814,3.047-3.918,3.047H76.89c-1.017,0-1.904-0.31-2.666-0.925c-0.762-0.617-1.18-1.397-1.251-2.34l-3.047-20.022
			c-3.556-1.159-6.82-2.503-9.794-4.026l-15.343,11.644c-0.727,0.653-1.633,0.979-2.721,0.979c-1.017,0-1.923-0.397-2.721-1.197
			c-9.141-8.27-15.125-14.363-17.954-18.281c-0.509-0.724-0.762-1.559-0.762-2.503c0-0.87,0.289-1.703,0.87-2.502
			c1.088-1.523,2.938-3.935,5.55-7.236c2.611-3.301,4.57-5.857,5.876-7.672c-1.959-3.627-3.446-7.218-4.461-10.773l-19.914-2.938
			c-0.943-0.145-1.705-0.599-2.285-1.36c-0.581-0.762-0.87-1.613-0.87-2.558V87.704c0-0.871,0.289-1.704,0.87-2.503
			c0.58-0.798,1.269-1.269,2.067-1.415l20.24-3.047c1.015-3.336,2.43-6.674,4.244-10.011c-2.902-4.136-6.784-9.141-11.644-15.017
			c-0.727-0.871-1.088-1.741-1.088-2.612c0-0.724,0.326-1.559,0.979-2.503c1.886-2.611,5.458-6.51,10.719-11.697
			c5.259-5.186,8.687-7.78,10.283-7.78c0.942,0,1.886,0.363,2.829,1.088l15.017,11.644c3.191-1.668,6.492-3.047,9.902-4.135
			c1.16-9.865,2.213-16.612,3.156-20.24c0.507-2.03,1.813-3.047,3.917-3.047h24.157c1.016,0,1.904,0.31,2.666,0.925
			c0.762,0.617,1.179,1.397,1.252,2.34l3.047,20.022c3.554,1.161,6.818,2.502,9.793,4.025l15.452-11.643
			c0.653-0.653,1.523-0.979,2.612-0.979c0.941,0,1.85,0.363,2.72,1.088c9.358,8.634,15.344,14.799,17.955,18.499
			c0.507,0.581,0.762,1.379,0.762,2.394c0,0.871-0.291,1.706-0.87,2.503c-1.089,1.523-2.938,3.937-5.55,7.236
			c-2.612,3.302-4.57,5.859-5.876,7.672c1.885,3.628,3.373,7.182,4.461,10.664l19.914,3.047c0.941,0.146,1.703,0.599,2.285,1.36
			C172.249,86.344,172.54,87.197,172.54,88.139z M120.784,131.816c8.789-8.789,13.185-19.396,13.185-31.816
			c0-12.42-4.396-23.026-13.185-31.817C111.996,59.394,101.388,55,88.968,55c-12.422,0-23.027,4.394-31.816,13.183
			C48.362,76.974,43.969,87.58,43.969,100c0,12.421,4.394,23.027,13.183,31.816S76.546,145,88.968,145
			C101.388,145,111.996,140.605,120.784,131.816z"/>
	</g>
	<g display="none">
	</g>
	<g display="none">
	</g>
</g>
<g id="_x36_9">
	<g>
		<path fill="#092238" d="M72.006,131.168c-1.99,0-3.795-0.363-5.417-1.09c-1.622-0.726-2.989-1.723-4.103-2.988
			c-1.114-1.266-2.055-2.782-2.822-4.553c-0.768-1.77-1.325-3.679-1.67-5.73c-0.346-2.051-0.519-4.224-0.519-6.521v-20.25
			c0-2.578,0.141-4.962,0.422-7.154c0.281-2.191,0.767-4.289,1.459-6.293c0.692-2.004,1.578-3.709,2.66-5.115
			c1.081-1.406,2.47-2.519,4.167-3.34c1.697-0.82,3.638-1.23,5.822-1.23c4.67,0,8.259,1.436,10.768,4.307
			c2.508,2.871,3.762,6.896,3.762,12.076h-8.303c0-3-0.449-5.25-1.346-6.75c-0.898-1.5-2.525-2.25-4.881-2.25
			c-4.151,0-6.227,4.5-6.227,13.5v9c1.6-3,4.367-4.5,8.303-4.5c2.335,0,4.33,0.439,5.984,1.318s2.94,2.157,3.859,3.832
			c0.919,1.676,1.584,3.557,1.995,5.642c0.411,2.087,0.616,4.488,0.616,7.207c0,2.953-0.271,5.655-0.811,8.104
			c-0.541,2.449-1.374,4.646-2.498,6.592c-1.125,1.946-2.638,3.463-4.541,4.553C76.785,130.623,74.557,131.168,72.006,131.168z
			 M68.958,122.836c0.843,0.633,1.859,0.949,3.049,0.949c1.189,0,2.206-0.316,3.049-0.949s1.486-1.512,1.93-2.637
			c0.443-1.125,0.762-2.314,0.957-3.568c0.195-1.253,0.292-2.619,0.292-4.096c0-0.891,0-1.564,0-2.021s-0.016-1.107-0.049-1.951
			c-0.032-0.844-0.076-1.494-0.129-1.951c-0.054-0.457-0.13-1.037-0.227-1.74c-0.098-0.703-0.222-1.248-0.373-1.635
			c-0.151-0.387-0.341-0.844-0.567-1.371c-0.227-0.527-0.492-0.931-0.795-1.212s-0.648-0.563-1.038-0.844s-0.843-0.48-1.362-0.598
			c-0.519-0.117-1.082-0.176-1.687-0.176c-2.681,0-4.757,1.5-6.227,4.5v9c0,1.5,0.097,2.871,0.292,4.113
			c0.195,1.243,0.514,2.426,0.957,3.551C67.471,121.324,68.114,122.203,68.958,122.836z"/>
		<path fill="#092238" d="M106.482,131.168c-4.67,0-8.26-1.436-10.768-4.307c-2.508-2.87-3.762-6.896-3.762-12.076h8.303
			c0,3.001,0.449,5.251,1.346,6.75c0.897,1.5,2.524,2.25,4.881,2.25c4.152,0,6.228-4.5,6.228-13.5v-9
			c-1.644,3.001-4.411,4.5-8.303,4.5c-2.335,0-4.33-0.439-5.984-1.318c-1.654-0.879-2.94-2.156-3.859-3.832
			c-0.919-1.675-1.584-3.556-1.995-5.643c-0.411-2.086-0.616-4.488-0.616-7.207c0-2.953,0.27-5.654,0.811-8.104
			c0.541-2.449,1.373-4.646,2.498-6.592c1.124-1.945,2.638-3.463,4.541-4.553c1.902-1.09,4.13-1.635,6.681-1.635
			c1.989,0,3.795,0.364,5.417,1.09c1.622,0.727,2.989,1.723,4.103,2.988c1.113,1.266,2.054,2.783,2.821,4.553
			c0.768,1.77,1.324,3.68,1.67,5.73c0.346,2.051,0.519,4.225,0.519,6.521v20.25c0,2.579-0.141,4.963-0.422,7.154
			c-0.281,2.192-0.768,4.289-1.459,6.293s-1.579,3.709-2.659,5.115c-1.082,1.406-2.471,2.52-4.168,3.34
			C110.606,130.758,108.667,131.168,106.482,131.168z M106.482,99.036c2.638,0,4.714-1.5,6.228-4.5v-9
			c0-1.5-0.098-2.871-0.292-4.113c-0.195-1.242-0.514-2.426-0.957-3.551c-0.443-1.125-1.086-2.004-1.93-2.637
			s-1.86-0.949-3.049-0.949s-2.205,0.316-3.048,0.949s-1.487,1.512-1.93,2.637s-0.762,2.315-0.957,3.568
			c-0.195,1.254-0.292,2.619-0.292,4.096c0,0.891,0,1.564,0,2.021s0.016,1.107,0.049,1.951c0.032,0.844,0.075,1.494,0.13,1.951
			c0.054,0.457,0.129,1.037,0.227,1.74c0.098,0.703,0.222,1.248,0.373,1.635s0.341,0.844,0.568,1.371s0.491,0.932,0.794,1.213
			c0.303,0.281,0.649,0.563,1.038,0.844s0.843,0.48,1.362,0.598C105.315,98.978,105.877,99.036,106.482,99.036z"/>
	</g>
</g>
<g id="HYPER">
	<g>
		<path fill="#C52026" d="M192.018,170.114V29.489h28.431v57.656h20.387V29.489h28.588v140.625h-28.588V107.38h-20.387v62.734
			H192.018z"/>
		<path fill="#F15623" d="M304.103,170.114V123.63l-26.4-94.141h26.791l13.122,61.797c1.613-6.77,4.035-17.07,7.265-30.898
			c3.228-13.828,5.624-24.127,7.186-30.898h26.011l-26.479,94.141v46.484H304.103z"/>
		<path fill="#049655" d="M366.356,170.114V29.489h33.978c12.237,0,21.141,3.412,26.713,10.234
			c5.57,6.824,8.357,16.693,8.357,29.609c0,6.355-0.613,11.875-1.836,16.563c-1.225,4.688-2.93,8.555-5.115,11.602
			c-2.188,3.047-5,5.496-8.436,7.344c-3.438,1.85-7.162,3.152-11.17,3.906c-4.012,0.756-8.645,1.16-13.904,1.211v60.156H366.356z
			 M395.022,89.88c1.51,0,2.851-0.09,4.022-0.273c1.172-0.182,2.2-0.391,3.084-0.625s1.666-0.664,2.344-1.289
			c0.676-0.625,1.236-1.172,1.68-1.641c0.441-0.469,0.82-1.236,1.133-2.305c0.313-1.066,0.547-1.939,0.703-2.617
			c0.156-0.676,0.273-1.77,0.352-3.281c0.078-1.51,0.117-2.721,0.117-3.633c0-0.91,0-2.33,0-4.258c0-0.52,0-0.911,0-1.172
			c0-2.031-0.014-3.567-0.039-4.609c-0.027-1.041-0.117-2.369-0.273-3.984c-0.156-1.614-0.404-2.825-0.742-3.633
			c-0.34-0.807-0.834-1.731-1.484-2.773c-0.652-1.041-1.445-1.797-2.383-2.266s-2.121-0.885-3.553-1.25
			c-1.433-0.364-3.085-0.547-4.96-0.547V89.88z"/>
		<path fill="#0B67B2" d="M446.184,170.114V29.489h58.658v19.531h-30.227v38.281h21.4v20h-21.4v43.281h30.227v19.531H446.184z"/>
		<path fill="#9B3092" d="M514.996,170.114V29.489h30.932c7.029,0,13.213,0.664,18.551,1.992s10.01,3.412,14.02,6.25
			c4.01,2.839,7.057,6.667,9.139,11.484c2.082,4.818,3.125,10.586,3.125,17.305c0,2.917-0.105,5.521-0.313,7.813
			c-0.209,2.293-0.691,4.91-1.445,7.852c-0.756,2.943-1.783,5.547-3.084,7.813c-1.303,2.266-3.178,4.492-5.625,6.68
			s-5.338,4.012-8.67,5.469c8.436,26.771,15.777,49.428,22.027,67.969h-29.447l-16.09-64.766h-4.688v64.766H514.996z
			 M543.428,88.005h8.123c2.188,0,4.063-0.729,5.625-2.188c1.563-1.457,2.693-3.307,3.396-5.547
			c0.703-2.238,1.197-4.297,1.484-6.172c0.285-1.875,0.43-3.645,0.43-5.313c0-1.666-0.117-3.385-0.352-5.156
			c-0.234-1.77-0.65-3.736-1.25-5.898c-0.598-2.161-1.588-3.932-2.967-5.313c-1.381-1.379-3.061-2.07-5.039-2.07h-9.451V88.005z"/>
	</g>
</g>
</svg>
